Coordinates
version=1
nRows=29
nColumns=24
inDegrees=yes

Units are S.I. units (second, meters, Newtons, ...)
Angles are in degrees.

endheader
time	pelvis_tilt	pelvis_list	pelvis_rotation	pelvis_tx	pelvis_ty	pelvis_tz	hip_flexion_r	hip_adduction_r	hip_rotation_r	knee_angle_r	ankle_angle_r	subtalar_angle_r	mtp_angle_r	hip_flexion_l	hip_adduction_l	hip_rotation_l	knee_angle_l	ankle_angle_l	subtalar_angle_l	mtp_angle_l	lumbar_extension	lumbar_bending	lumbar_rotation
      1.15800000	     -2.15713492	      0.85488298	     -3.52146554	      0.23954630	      1.07981972	      0.28879665	     16.52970612	     -5.37747356	     -7.31906413	    -68.48503989	      2.47680859	     -4.82261671	      8.16761879	     10.21266727	      1.81620900	     -0.87672880	    -17.36355591	     10.85259101	      2.60972241	      6.65489548	     -9.05445912	     -1.15279837	     -0.56375632
      1.16216667	     -2.17322024	      0.64882740	     -3.50940698	      0.24474574	      1.08102512	      0.28861774	     17.03400387	     -5.08589363	     -7.41533428	    -68.24280220	      2.75408082	     -4.46607352	      8.16831921	      9.64959393	      1.61771982	     -0.86164494	    -16.82257236	     10.82930313	      2.67635879	      6.64400553	     -9.05994844	     -0.91063755	     -0.63306315
      1.16633333	     -2.16492341	      0.45181095	     -3.48697621	      0.24993175	      1.08223114	      0.28843787	     17.49833819	     -4.80609838	     -7.52264344	    -67.94070499	      3.04392853	     -4.05478890	      8.17527806	      9.05891797	      1.43184263	     -0.83132459	    -16.27239103	     10.80753502	      2.73803330	      6.63101677	     -9.09734995	     -0.68308689	     -0.72740804
      1.17050000	     -2.14944558	      0.27106735	     -3.45310158	      0.25512620	      1.08338266	      0.28823698	     17.94306472	     -4.54989192	     -7.64536298	    -67.58865805	      3.34523716	     -3.61746898	      8.18959138	      8.45833807	      1.26764515	     -0.78342557	    -15.71245117	     10.79719082	      2.77854028	      6.61110190	     -9.13168891	     -0.46757740	     -0.85850296
      1.17466667	     -2.15241110	      0.07516249	     -3.41414723	      0.26032031	      1.08447262	      0.28804448	     18.39038230	     -4.26765569	     -7.76940440	    -67.16652152	      3.61191653	     -3.21658246	      8.21178241	      7.88685471	      1.08163543	     -0.74997381	    -15.17060288	     10.76693817	      2.83047428	      6.59220765	     -9.15523810	     -0.23126664	     -0.95960442
      1.17883333	     -2.14310302	     -0.11133105	     -3.36997673	      0.26549944	      1.08551801	      0.28785817	     18.81429770	     -3.99582825	     -7.89784756	    -66.69523106	      3.88060144	     -2.80873692	      8.24209303	      7.30564110	      0.90521689	     -0.71898579	    -14.62994030	     10.73519350	      2.88584589	      6.57323906	     -9.19351911	     -0.00530098	     -1.06351832
      1.18300000	     -2.13648824	     -0.30155833	     -3.31596550	      0.27067541	      1.08650553	      0.28766946	     19.22527059	     -3.71814143	     -8.03537371	    -66.16547813	      4.13553153	     -2.42168502	      8.27795017	      6.73336510	      0.72352284	     -0.68379122	    -14.09879542	     10.70914683	      2.94470821	      6.55506159	     -9.22970913	      0.22343193	     -1.16888968
      1.18716667	     -2.13439910	     -0.48272603	     -3.25587283	      0.27584605	      1.08741188	      0.28747933	     19.63092563	     -3.45025956	     -8.17755069	    -65.59049955	      4.39386685	     -2.06259640	      8.33054224	      6.17062657	      0.55117552	     -0.64528506	    -13.57077112	     10.66508042	      2.99574091	      6.53101557	     -9.26280395	      0.44502354	     -1.30248690
      1.19133333	     -2.14518989	     -0.66926768	     -3.19365261	      0.28101676	      1.08823740	      0.28730420	     20.03572799	     -3.17108701	     -8.32085310	    -64.95826603	      4.61601657	     -1.73680120	      8.36479201	      5.63520128	      0.36791724	     -0.62652681	    -13.07312034	     10.64655426	      3.06739107	      6.51832279	     -9.27694781	      0.66575112	     -1.37198268
      1.19550000	     -2.12450076	     -0.82694953	     -3.11804181	      0.28617860	      1.08904156	      0.28709623	     20.39766105	     -2.93686752	     -8.47957287	    -64.29172167	      4.86359061	     -1.39246185	      8.41812704	      5.05999944	      0.22275084	     -0.57598605	    -12.55175432	     10.64048890	      3.11255275	      6.49987885	     -9.32795911	      0.86864982	     -1.51561064
      1.19966667	     -2.13504384	     -1.00965288	     -3.04186665	      0.29133587	      1.08973402	      0.28691305	     20.77487022	     -2.66338313	     -8.63500412	    -63.56154277	      5.07247684	     -1.13401438	      8.45594286	      4.53724486	      0.04192912	     -0.55408248	    -12.07159631	     10.61312260	      3.17963855	      6.48769232	     -9.34629717	      1.08461523	     -1.60028450
      1.20383333	     -2.14519361	     -1.16315614	     -2.96842358	      0.29650159	      1.09033377	      0.28673004	     21.14760048	     -2.42639043	     -8.78941201	    -62.80534762	      5.28902089	     -0.89741172	      8.48903677	      4.01329459	     -0.10640628	     -0.53609461	    -11.58638640	     10.59879191	      3.24852876	      6.47804075	     -9.35986814	      1.28921662	     -1.68767750
      1.20800000	     -2.11119158	     -1.29772165	     -2.87697132	      0.30161852	      1.09092406	      0.28652664	     21.46212739	     -2.22095186	     -8.95723337	    -62.01086666	      5.51202892	     -0.65496405	      8.56484258	      3.44351859	     -0.22719564	     -0.45241806	    -11.09338630	     10.59681953	      3.25795765	      6.45637071	     -9.44276844	      1.45767947	     -1.89468909
      1.21216667	     -2.15169458	     -1.44125784	     -2.80312749	      0.30679593	      1.09132967	      0.28636202	     21.84424499	     -1.99170905	     -9.11137730	    -61.17058294	      5.69085627	     -0.51227567	      8.58856186	      2.96482889	     -0.36954085	     -0.44763401	    -10.63233102	     10.60054236	      3.33825723	      6.45026302	     -9.40578914	      1.65089124	     -1.93289724
      1.21633333	     -2.12910413	     -1.58710764	     -2.69415974	      0.31191908	      1.09177202	      0.28614506	     22.13428555	     -1.77744590	     -9.29894867	    -60.27097461	      5.87368831	     -0.32256247	      8.64600338	      2.43213573	     -0.50715273	     -0.37311649	    -10.19182179	     10.63363750	      3.35542852	      6.43640444	     -9.47174215	      1.82780678	     -2.10911085
      1.22050000	     -2.14136570	     -1.71558977	     -2.60302660	      0.31705439	      1.09206143	      0.28596880	     22.45992945	     -1.57370888	     -9.46441168	    -59.34801488	      6.04937398	     -0.20613991	      8.70006198	      1.93934166	     -0.63101046	     -0.32621012	     -9.75642763	     10.64869495	      3.38708584	      6.42332484	     -9.48836502	      1.99511519	     -2.23288299
      1.22466667	     -2.17041307	     -1.83481370	     -2.50841800	      0.32219788	      1.09224986	      0.28579503	     22.79037168	     -1.38056217	     -9.63003115	    -58.38613267	      6.22033156	     -0.11784662	      8.75868398	      1.47061688	     -0.74639554	     -0.27017457	     -9.33289611	     10.66664281	      3.41549586	      6.41017026	     -9.48789827	      2.15117770	     -2.36440001
      1.22883333	     -2.22539368	     -1.93251097	     -2.43290112	      0.32736187	      1.09229552	      0.28566277	     23.14534211	     -1.20458498	     -9.77647377	    -57.40421674	      6.39973941	     -0.05889165	      8.77813392	      1.03531656	     -0.84266317	     -0.26398881	     -8.92328516	     10.69711299	      3.48837863	      6.40675816	     -9.44150003	      2.28299323	     -2.40492340
      1.23300000	     -2.23033455	     -2.04318102	     -2.32381812	      0.33247795	      1.09237002	      0.28548298	     23.41917293	     -1.02988844	     -9.95612646	    -56.35559480	      6.53558793	      0.00396947	      8.82607960	      0.56097864	     -0.94943352	     -0.19179078	     -8.53808134	     10.75601769	      3.49138823	      6.39790367	     -9.47187281	      2.42782576	     -2.57543254
      1.23716667	     -2.28301512	     -2.14319824	     -2.23780679	      0.33762859	      1.09228599	      0.28534337	     23.73568914	     -0.85467429	    -10.10504831	    -55.27855088	      6.70365843	      0.04266862	      8.85110250	      0.14504937	     -1.04976388	     -0.17091659	     -8.17382526	     10.79285823	      3.53407262	      6.39385332	     -9.43916963	      2.55552861	     -2.64144556
      1.24133333	     -2.33473298	     -2.22473303	     -2.14926935	      0.34277914	      1.09211283	      0.28521684	     24.04137554	     -0.70282309	    -10.25488178	    -54.17265574	      6.85256709	      0.06855228	      8.87477511	     -0.26858726	     -1.13030689	     -0.13387980	     -7.81567782	     10.85907753	      3.57084065	      6.39098685	     -9.40708311	      2.66602636	     -2.73191784
      1.24550000	     -2.37701386	     -2.29845783	     -2.05756896	      0.34791506	      1.09187273	      0.28508744	     24.32401739	     -0.56265259	    -10.40537921	    -53.03261958	      6.98447159	      0.06889069	      8.92756237	     -0.69346438	     -1.20008138	     -0.05236492	     -7.45253080	     10.93276950	      3.55918328	      6.38462783	     -9.39620152	      2.77821714	     -2.91717718
      1.24966667	     -2.45549753	     -2.36407572	     -1.97998722	      0.35308161	      1.09150647	      0.28499070	     24.63047412	     -0.42504031	    -10.54056690	    -51.85425465	      7.14026006	      0.09982803	      8.94943435	     -1.06260529	     -1.26641194	     -0.03591581	     -7.13133809	     11.01155555	      3.59272389	      6.38320015	     -9.32423373	      2.86646256	     -2.96382533
      1.25383333	     -2.51695402	     -2.42692452	     -1.89661637	      0.35824203	      1.09109146	      0.28488385	     24.90197375	     -0.29430593	    -10.67737513	    -50.63662993	      7.25658142	      0.09742334	      8.98941234	     -1.45143747	     -1.32775681	      0.02394902	     -6.80627679	     11.11584198	      3.60004745	      6.38054313	     -9.28213111	      2.96070797	     -3.09200612
      1.25800000	     -2.60703632	     -2.47461429	     -1.82845636	      0.36340869	      1.09056315	      0.28482979	     25.19198033	     -0.16951305	    -10.78785934	    -49.38688224	      7.41817017	      0.13213365	      9.00901909	     -1.79470868	     -1.37700182	      0.04036428	     -6.51571076	     11.20635252	      3.63017703	      6.38007946	     -9.20495400	      3.02779186	     -3.13946583
      1.26216667	     -2.71213512	     -2.51328421	     -1.76316861	      0.36859759	      1.08992253	      0.28478582	     25.48374162	     -0.05454612	    -10.89325651	    -48.10620990	      7.55686354	      0.16230239	      9.02931297	     -2.11958953	     -1.41687484	      0.06908288	     -6.23380112	     11.32399253	      3.65021817	      6.38022881	     -9.10880824	      3.08820791	     -3.20883927
      1.26633333	     -2.80313786	     -2.54770544	     -1.69932187	      0.37377154	      1.08925646	      0.28474641	     25.74177835	      0.05773060	    -10.98927482	    -46.78206403	      7.68863174	      0.19694943	      9.05017056	     -2.45048926	     -1.45117457	      0.09961738	     -5.97085514	     11.44635948	      3.66260965	      6.38016129	     -9.02966222	      3.14329026	     -3.28357075
      1.27050000	     -2.91021201	     -2.57316568	     -1.64893657	      0.37897007	      1.08849332	      0.28474700	     26.00375642	      0.16550754	    -11.07160835	    -45.43114157	      7.82925489	      0.24822209	      9.06681627	     -2.76608843	     -1.47766863	      0.12299944	     -5.70785044	     11.58144165	      3.68153191	      6.38064182	     -8.94000339	      3.17583866	     -3.34128261
      1.27466667	     -3.01072665	     -2.59228883	     -1.59471167	      0.38416477	      1.08769482	      0.28475185	     26.23599249	      0.26979202	    -11.13958027	    -44.03252103	      7.95277233	      0.31185216	      9.08514356	     -3.07249847	     -1.49770628	      0.14906797	     -5.48000468	     11.71919488	      3.68589050	      6.38033632	     -8.85053294	      3.21698783	     -3.40490391
